<?xml version="1.0" encoding="utf-8"?>
<!-- Generator: Adobe Illustrator 22.0.0, SVG Export Plug-In . SVG Version: 6.00 Build 0)  -->
<svg version="1.1" id="Capa_1" xmlns="http://www.w3.org/2000/svg" xmlns:xlink="http://www.w3.org/1999/xlink" x="0px" y="0px"
	 viewBox="0 0 156.3 59" style="enable-background:new 0 0 156.3 59;" xml:space="preserve">
<style type="text/css">
	.st0{fill:#252525;}
	.st1{fill:#252525;stroke:#2B2B2B;stroke-miterlimit:10;}
</style>
<g>
	<g>
		<g>
			<g>
				<path class="st0" d="M23.4,57.6V44.1c-1.6,1.6-4.2,2.3-7.9,2.3c-4.2,0-7.4-1.4-9.8-4.1s-3.5-6.6-3.5-11.4s1.4-8.6,4.1-11.4
					s6.2-4.2,10.4-4.2c2.7,0,5.1,0.9,7.4,2.8l1.5-2.3h3.3v41.9h-5.5C23.4,57.7,23.4,57.6,23.4,57.6z M23.4,22
					c-1.6-1.5-3.5-2.3-5.8-2.3c-3.1,0-5.4,1-7.1,3.1c-1.7,2-2.6,4.7-2.6,8.1c0,3.5,0.9,6.2,2.6,8.1c1.7,1.9,4,2.9,6.9,2.9
					c2.6,0,4.6-0.7,6.1-2L23.4,22L23.4,22z"/>
				<path class="st0" d="M39.6,15.7v19.2c0,4.6,2,7,6.1,7c1.8,0,3.4-0.5,4.9-1.5s2.5-2.2,2.9-3.5V15.7H59v30.1h-5.4v-4.2
					c-0.6,1.2-1.8,2.3-3.7,3.2c-1.8,1-3.6,1.5-5.4,1.5c-3.3,0-5.9-0.9-7.7-2.8c-1.8-1.9-2.7-4.6-2.7-8.1V15.7H39.6z"/>
				<path class="st0" d="M67.1,45.8V20.2H63v-4.5h9.6v30.1C72.6,45.8,67.1,45.8,67.1,45.8z M70.1,4.4c0.9,0,1.7,0.3,2.4,1
					c0.7,0.6,1,1.4,1,2.3s-0.3,1.7-1,2.3s-1.4,1-2.4,1c-0.9,0-1.7-0.3-2.3-1c-0.7-0.6-1-1.4-1-2.3s0.3-1.7,1-2.3
					C68.4,4.7,69.2,4.4,70.1,4.4z"/>
				<path class="st0" d="M105,31.3H83c0,3.5,1,6.2,2.9,8.1c1.7,1.6,3.9,2.5,6.7,2.5c3.1,0,5.7-0.9,7.7-2.7l2.3,3.8
					c-0.8,0.8-2.1,1.5-3.8,2.1c-2.2,0.8-4.6,1.2-7.2,1.2c-3.8,0-7.1-1.3-9.8-3.8c-3-2.8-4.5-6.6-4.5-11.4c0-5,1.5-8.9,4.6-11.9
					c2.7-2.7,6-4,9.7-4c4.3,0,7.7,1.2,10.2,3.6c2.4,2.3,3.6,5.4,3.6,9.2C105.4,29.2,105.2,30.3,105,31.3z M91.9,19.7
					c-2.4,0-4.4,0.8-6.1,2.3c-1.6,1.5-2.4,3.3-2.6,5.5H100c0-2.2-0.7-4-2-5.4C96.5,20.5,94.4,19.7,91.9,19.7z"/>
				<path class="st0" d="M125.8,20.9c-1.2-0.8-2.4-1.2-3.6-1.2c-1.9,0-3.6,0.9-5,2.6s-2.1,3.8-2.1,6.3v17.3h-5.4V15.7h5.4v4.8
					c2-3.6,4.9-5.4,8.8-5.4c1,0,2.4,0.2,4.2,0.5L125.8,20.9z"/>
				<path class="st0" d="M128.1,30.7c0-4.6,1.3-8.4,3.8-11.3s5.9-4.3,10-4.3c4.4,0,7.7,1.4,10.2,4.1c2.4,2.7,3.6,6.6,3.6,11.4
					c0,4.9-1.2,8.7-3.7,11.5s-5.8,4.2-10.1,4.2s-7.7-1.4-10.2-4.2C129.3,39.3,128.1,35.5,128.1,30.7z M133.8,30.7
					c0,7.5,2.7,11.3,8.1,11.3c2.5,0,4.5-1,5.9-3s2.1-4.8,2.1-8.3c0-7.5-2.7-11.2-8.1-11.2c-2.5,0-4.4,1-5.9,3
					C134.5,24.5,133.8,27.2,133.8,30.7z"/>
			</g>
			<g>
				<path class="st0" d="M36,53.1h1.1v3.2c0,0.4-0.1,0.8-0.4,1c-0.3,0.3-0.6,0.4-1,0.4c-0.3,0-0.6-0.1-0.8-0.2
					c-0.2-0.2-0.4-0.4-0.5-0.7l0.8-0.5l0,0c0,0,0,0.1,0.1,0.2c0,0.1,0.1,0.2,0.2,0.3c0.1,0.1,0.1,0.1,0.2,0.1c0.1,0,0.2,0,0.3-0.1
					s0.1-0.2,0.1-0.4L36,53.1L36,53.1z"/>
				<path class="st0" d="M37.9,55.4c0-0.7,0.2-1.2,0.7-1.7s1.1-0.7,1.8-0.7c0.8,0,1.4,0.2,1.9,0.7c0.5,0.4,0.7,1,0.7,1.7
					s-0.2,1.2-0.7,1.7c-0.5,0.4-1.1,0.7-1.8,0.7s-1.3-0.2-1.8-0.7S37.9,56.1,37.9,55.4z M40.5,54c-0.4,0-0.8,0.1-1,0.4
					c-0.3,0.3-0.4,0.6-0.4,1s0.1,0.7,0.4,1c0.3,0.3,0.6,0.4,1,0.4s0.8-0.1,1-0.4c0.3-0.3,0.4-0.6,0.4-1s-0.1-0.8-0.4-1
					C41.2,54.1,40.9,54,40.5,54z"/>
				<path class="st0" d="M43.2,53.1h1.2l0.9,1.4l0.9-1.4h1.2l-1.6,2.4v2.1h-1.1v-2.1L43.2,53.1z"/>
				<path class="st0" d="M49.3,53.1h0.8l2.1,4.5h-1.1l-0.4-0.9h-1.9l-0.4,0.9h-1.1L49.3,53.1z M49.7,54.6L49.1,56h1.2L49.7,54.6z"/>
				<path class="st0" d="M55.8,53.6l-0.7,0.7c-0.4-0.2-0.6-0.3-0.8-0.3c-0.1,0-0.2,0-0.3,0.1s-0.1,0.2-0.1,0.3
					c0,0.2,0.2,0.4,0.7,0.6c0.3,0.1,0.6,0.2,0.8,0.3s0.3,0.2,0.4,0.4c0.1,0.2,0.2,0.4,0.2,0.6c0,0.4-0.2,0.7-0.5,1
					c-0.4,0.3-0.8,0.4-1.2,0.4c-0.5,0-1-0.2-1.6-0.7l0.7-0.7c0.3,0.3,0.6,0.4,0.9,0.4c0.1,0,0.3-0.1,0.4-0.2
					c0.1-0.1,0.2-0.2,0.2-0.3c0-0.2-0.3-0.4-0.8-0.6c-0.3-0.1-0.5-0.2-0.7-0.3c-0.1-0.1-0.2-0.2-0.3-0.4S53,54.5,53,54.4
					c0-0.4,0.1-0.7,0.4-1c0.3-0.3,0.7-0.4,1.1-0.4C55,53.1,55.4,53.2,55.8,53.6z"/>
				<path class="st0" d="M58.4,53.1h1.2l0.9,1.4l0.9-1.4h1.2L61,55.5v2.1h-1.1v-2.1L58.4,53.1z"/>
				<path class="st0" d="M67.3,53.1h0.8l2.1,4.5h-1.1l-0.4-0.9h-1.9l-0.4,0.9h-1.1L67.3,53.1z M67.7,54.6L67.1,56h1.2L67.7,54.6z"/>
				<path class="st0" d="M74.4,53.4v1.1c-0.5-0.3-1-0.4-1.4-0.4s-0.7,0.1-1,0.4c-0.2,0.3-0.4,0.6-0.4,1s0.1,0.7,0.4,1s0.6,0.4,1,0.4
					s0.8-0.1,1.4-0.4v1.1c-0.6,0.2-1.1,0.3-1.5,0.3c-0.7,0-1.3-0.2-1.7-0.7c-0.5-0.4-0.7-1-0.7-1.6c0-0.7,0.2-1.2,0.7-1.7
					s1.1-0.7,1.8-0.7C73.4,53.1,73.9,53.2,74.4,53.4z"/>
				<path class="st0" d="M79,53.4v1.1c-0.5-0.3-1-0.4-1.4-0.4s-0.7,0.1-1,0.4c-0.2,0.3-0.4,0.6-0.4,1s0.1,0.7,0.4,1s0.6,0.4,1,0.4
					s0.8-0.1,1.4-0.4v1.1c-0.6,0.2-1.1,0.3-1.5,0.3c-0.7,0-1.3-0.2-1.7-0.7c-0.5-0.4-0.7-1-0.7-1.6c0-0.7,0.2-1.2,0.7-1.7
					s1.1-0.7,1.8-0.7C78,53.1,78.5,53.2,79,53.4z"/>
				<path class="st0" d="M79.8,53.1h2.9V54h-1.8v1h1.8v0.9h-1.8v0.9h1.8v0.9h-2.9V53.1z"/>
				<path class="st0" d="M86.4,53.6l-0.7,0.7c-0.4-0.2-0.6-0.3-0.8-0.3c-0.1,0-0.2,0-0.3,0.1c-0.1,0.1-0.1,0.2-0.1,0.3
					c0,0.2,0.2,0.4,0.7,0.6c0.3,0.1,0.6,0.2,0.8,0.3s0.3,0.2,0.4,0.4s0.2,0.4,0.2,0.6c0,0.4-0.2,0.7-0.5,1c-0.4,0.3-0.8,0.4-1.2,0.4
					c-0.5,0-1-0.2-1.6-0.7l0.7-0.7c0.3,0.3,0.6,0.4,0.9,0.4c0.1,0,0.3-0.1,0.4-0.2c0.1-0.1,0.2-0.2,0.2-0.3c0-0.2-0.3-0.4-0.8-0.6
					c-0.3-0.1-0.5-0.2-0.7-0.3c-0.1-0.1-0.2-0.2-0.3-0.4s-0.1-0.4-0.1-0.5c0-0.4,0.1-0.7,0.4-1s0.7-0.4,1.1-0.4
					C85.6,53.1,86,53.2,86.4,53.6z"/>
				<path class="st0" d="M87.2,55.4c0-0.7,0.2-1.2,0.7-1.7S89,53,89.7,53c0.8,0,1.4,0.2,1.9,0.7c0.5,0.4,0.7,1,0.7,1.7
					s-0.2,1.2-0.7,1.7c-0.5,0.4-1.1,0.7-1.8,0.7c-0.7,0-1.3-0.2-1.8-0.7C87.4,56.6,87.2,56.1,87.2,55.4z M89.7,54
					c-0.4,0-0.8,0.1-1,0.4c-0.3,0.3-0.4,0.6-0.4,1s0.1,0.7,0.4,1s0.6,0.4,1,0.4s0.8-0.1,1-0.4c0.3-0.3,0.4-0.6,0.4-1s-0.1-0.8-0.4-1
					C90.5,54.1,90.1,54,89.7,54z"/>
				<path class="st0" d="M93.2,53.1h1.7c0.5,0,0.9,0.1,1.2,0.4c0.3,0.2,0.4,0.6,0.4,1c0,0.2-0.1,0.5-0.2,0.7
					c-0.1,0.3-0.4,0.4-0.7,0.6l1.4,1.9h-1.3l-1.3-1.8h-0.1v1.8h-1.1V53.1z M94.3,54v1.2h0.2c0.6,0,0.9-0.2,0.9-0.6
					c0-0.2-0.1-0.3-0.2-0.4C95,54,94.8,54,94.5,54H94.3z"/>
				<path class="st0" d="M97.7,53.1h1.1v4.5h-1.1V53.1z"/>
				<path class="st0" d="M99.7,55.4c0-0.7,0.2-1.2,0.7-1.7s1.1-0.7,1.8-0.7c0.8,0,1.4,0.2,1.9,0.7c0.5,0.4,0.7,1,0.7,1.7
					s-0.2,1.2-0.7,1.7c-0.5,0.4-1.1,0.7-1.8,0.7c-0.7,0-1.3-0.2-1.8-0.7C99.9,56.6,99.7,56.1,99.7,55.4z M102.2,54
					c-0.4,0-0.8,0.1-1,0.4c-0.3,0.3-0.4,0.6-0.4,1s0.1,0.7,0.4,1s0.6,0.4,1,0.4s0.8-0.1,1-0.4c0.3-0.3,0.4-0.6,0.4-1s-0.1-0.8-0.4-1
					C103,54.1,102.7,54,102.2,54z"/>
				<path class="st0" d="M108.5,53.6l-0.7,0.7c-0.4-0.2-0.6-0.3-0.8-0.3c-0.1,0-0.2,0-0.3,0.1c-0.1,0.1-0.1,0.2-0.1,0.3
					c0,0.2,0.2,0.4,0.7,0.6c0.3,0.1,0.6,0.2,0.8,0.3s0.3,0.2,0.4,0.4s0.2,0.4,0.2,0.6c0,0.4-0.2,0.7-0.5,1c-0.4,0.3-0.8,0.4-1.2,0.4
					c-0.5,0-1-0.2-1.6-0.7l0.7-0.7c0.3,0.3,0.6,0.4,0.9,0.4c0.1,0,0.3-0.1,0.4-0.2c0.1-0.1,0.2-0.2,0.2-0.3c0-0.2-0.3-0.4-0.8-0.6
					c-0.3-0.1-0.5-0.2-0.7-0.3c-0.1-0.1-0.2-0.2-0.3-0.4s-0.1-0.4-0.1-0.5c0-0.4,0.1-0.7,0.4-1s0.7-0.4,1.1-0.4
					C107.7,53.1,108.2,53.2,108.5,53.6z"/>
			</g>
			<g>
				<path class="st0" d="M64.7,6.2c0,0-0.5-1.2,0.3-2.3s1.8-1.2,2.6-1.1c0.8,0.1,1.7,0.7,2.1,1.2s0.6,0.9,0.6,0.9s0.4-2.2,1.6-3
					s1.7-1,2.1-0.9s1.2,0.3,1.5,0.8s0.9,1.5,0.7,2.5c-0.2,1-0.6,2.6-1.3,3.6c-0.7,1-1.9,2.4-2.6,3s-1.7,1.2-1.8,1.2
					c-0.2,0-0.1,0-0.1,0h-0.2c0,0-0.5-0.2-0.8-0.4s-1.2-0.9-1.4-1.1c-0.2-0.2-1.3-1.2-1.3-1.2s-0.9-0.8-1-1.1c0,0-0.5-0.7-0.6-0.9
					s-0.4-0.8-0.4-0.9C64.8,6.6,64.7,6.2,64.7,6.2z"/>
			</g>
		</g>
	</g>
</g>
<path class="st1" d="M-61.2-67.5"/>
</svg>
